<svg width="180" height="92" viewBox="0 0 180 92" fill="none" xmlns="http://www.w3.org/2000/svg">
<path d="M56.6171 26.2104V11.0359H53.3096V8.61294H56.6171V6.40231C56.6171 4.31544 57.1476 2.7266 58.2086 1.63582C59.27 0.545623 60.738 0.000353058 62.6126 0C63.7208 0 64.6934 0.123751 65.5306 0.371254V2.86524C65.0926 2.74439 64.6463 2.65567 64.1954 2.5998C63.7991 2.55331 63.4005 2.52972 63.0015 2.52914C60.608 2.52914 59.4113 3.75528 59.4113 6.20755V8.61294H65.4069V11.0359H59.4113V26.2104L56.6171 26.2104Z" fill="#67788A"/>
<path d="M69.333 26.2106V8.61308H72.1272V11.6727C72.6813 10.5646 73.3888 9.71277 74.2496 9.11723C75.1102 8.52203 76.1066 8.22425 77.2386 8.2239C77.7616 8.22192 78.2833 8.2753 78.795 8.38316V11.1777C78.5236 11.1422 78.2318 11.1127 77.9196 11.0891C77.607 11.0656 77.3034 11.0537 77.0087 11.0536C75.7234 11.0536 74.6829 11.4457 73.8872 12.23C73.0912 13.0143 72.5046 14.0607 72.1272 15.369V26.2106H69.333Z" fill="#67788A"/>
<path d="M89.6888 26.5997C87.932 26.5997 86.411 26.2047 85.1258 25.4146C83.8466 24.6313 82.8139 23.5035 82.146 22.1605C81.4443 20.781 81.0935 19.201 81.0938 17.4207C81.0938 15.6285 81.4445 14.0426 82.146 12.663C82.814 11.3201 83.8467 10.1923 85.1258 9.40897C86.4108 8.61901 87.9318 8.22397 89.6888 8.22385H90.0428C91.7992 8.22385 93.3202 8.61889 94.6057 9.40897C95.8849 10.1923 96.9175 11.3201 97.5856 12.663C98.2869 14.0426 98.6377 15.6285 98.6378 17.4207C98.6378 19.201 98.2871 20.781 97.5856 22.1605C96.9176 23.5035 95.8849 24.6313 94.6057 25.4146C93.3204 26.2045 91.7994 26.5996 90.0428 26.5997H89.6888ZM89.7067 24.0175H90.0249C91.7816 24.0175 93.173 23.4162 94.199 22.2136C95.2245 21.0109 95.7373 19.4133 95.7374 17.4207C95.7374 15.4165 95.2246 13.8159 94.199 12.6191C93.1731 11.4224 91.7817 10.8239 90.0249 10.8237H89.7067C87.9496 10.8237 86.5582 11.4221 85.5326 12.6191C84.5071 13.8158 83.9943 15.4164 83.9941 17.4207C83.9941 19.4134 84.507 21.011 85.5326 22.2136C86.5584 23.4163 87.9498 24.0176 89.7067 24.0175V24.0175Z" fill="#67788A"/>
<path d="M102.688 26.2105V8.61301H105.483V11.885C106.119 10.753 106.933 9.85977 107.924 9.20539C108.914 8.55114 110.063 8.22396 111.372 8.22385H111.726C114.65 8.22385 116.531 9.62694 117.368 12.4331C118.04 11.1362 118.915 10.1105 119.994 9.35588C121.073 8.60143 122.314 8.22408 123.717 8.22385H124.088C126.069 8.22385 127.581 8.88713 128.625 10.2137C129.668 11.5401 130.19 13.4354 130.19 15.8995V26.2105H127.396V16.3062C127.396 12.6514 126.057 10.8239 123.381 10.8236H123.063C121.801 10.8236 120.716 11.2422 119.809 12.0794C118.9 12.9168 118.24 13.978 117.828 15.2628V26.2105H115.033V16.3062C115.033 12.6514 113.701 10.8239 111.036 10.8236H110.7C109.438 10.8236 108.357 11.2422 107.455 12.0794C106.553 12.9168 105.895 13.978 105.483 15.2628V26.2105H102.688Z" fill="#67788A"/>
<path fill-rule="evenodd" clip-rule="evenodd" d="M28.0333 63.1894C31.2007 58.907 34.6988 55.5358 39.1749 55.5358C47.6273 55.5358 54.5845 66.2929 54.5859 79.0988C54.5859 86.9127 51.2234 91.8067 45.1803 91.8067C39.9156 91.8067 37.0109 88.8519 31.797 80.1267L29.12 75.6238C28.484 74.5535 27.8795 73.5555 27.3064 72.6298C25.669 75.5244 23.2895 79.7263 23.2895 79.7263C17.5816 89.705 14.3707 91.8088 9.90618 91.8088C3.69986 91.8088 0 86.9809 0 79.3258C0 67.0931 6.8041 55.5358 15.6852 55.5358C20.0409 55.5358 23.6805 57.6476 28.0333 63.1894ZM10.1308 85.905C12.7076 85.905 14.3087 84.2792 18.9364 77.0246C18.9364 77.0246 21.041 73.6824 24.5152 68.3561C20.8567 63.1153 18.4678 61.4642 15.6095 61.4642C10.3288 61.4642 5.90351 70.5455 5.90351 79.4259C5.90351 83.577 7.47921 85.905 10.1308 85.905ZM36.4036 76.1113L33.2028 70.7705C32.3366 69.3621 31.5043 68.0657 30.7058 66.8813C33.5902 62.4291 35.9697 60.2107 38.7998 60.2107C44.676 60.2107 49.3813 68.8662 49.3813 79.4978C49.3813 83.551 48.0537 85.9022 45.3035 85.9022C42.6679 85.9051 41.4056 84.164 36.4036 76.1113ZM66.0686 56.7016H72.8909L84.4903 77.6849L96.0904 56.7016H102.765V91.1814H97.1989V64.755L87.0272 83.054H81.8061L71.6344 64.755V91.1814H66.0686V56.7016ZM113.921 90.0852C115.875 91.2266 118.14 91.7973 120.718 91.7973C124.987 91.7973 128.591 90.4499 131.53 87.755L128.575 84.135C127.524 85.1366 126.4 85.8836 125.201 86.3759C124.002 86.8683 122.573 87.1145 120.915 87.1145C118.847 87.1116 117.135 86.507 115.781 85.3008C114.426 84.0946 113.576 82.4403 113.231 80.3379H132.12V78.8144C132.12 76.0064 131.643 73.5599 130.691 71.475C129.739 69.3919 128.381 67.7717 126.615 66.6144C124.85 65.457 122.744 64.8783 120.298 64.8783C117.835 64.8783 115.656 65.4529 113.76 66.602C111.863 67.7512 110.381 69.3438 109.314 71.3799C108.247 73.416 107.713 75.7559 107.713 78.3995C107.713 81.0097 108.259 83.3246 109.35 85.3443C110.401 87.3207 111.984 88.9631 113.921 90.0852ZM120.201 69.5576C122.089 69.5576 123.616 70.1527 124.782 71.3429C125.948 72.5336 126.613 74.1807 126.777 76.284H113.232C113.559 74.2295 114.343 72.5948 115.584 71.3799C116.824 70.165 118.363 69.5576 120.201 69.5576ZM133.748 70.05H138.87V82.2458C138.87 88.5815 141.768 91.7493 147.564 91.7493C148.368 91.7515 149.171 91.6938 149.966 91.5766C150.66 91.4764 151.347 91.3283 152.021 91.1334V86.6261C151.43 86.7252 150.889 86.8033 150.396 86.8604C149.799 86.9235 149.199 86.9523 148.599 86.9467C147.006 86.9453 145.881 86.5342 145.225 85.7135C144.568 84.8927 144.239 83.5218 144.239 81.6008V70.05H152.021V65.4934H144.239V57.9573H138.87V65.4934H133.748V70.05ZM174.73 91.1813H180V65.4935H174.73V68.7907C173.826 67.5568 172.634 66.5634 171.257 65.8976C169.862 65.2161 168.285 64.8754 166.528 64.8754C164.197 64.8754 162.132 65.4499 160.334 66.5991C158.537 67.7482 157.129 69.3326 156.111 71.3523C155.093 73.372 154.584 75.6954 154.584 78.3225C154.583 80.9332 155.084 83.2523 156.086 85.2797C157.088 87.3115 158.463 88.9063 160.212 90.0641C161.96 91.222 163.967 91.8009 166.233 91.8009C168.072 91.7999 169.714 91.4345 171.159 90.7047C172.593 89.9824 173.821 88.9094 174.73 87.5852V91.1813ZM171.91 71.0229C173.149 71.8678 174.056 73.0213 174.631 74.4834V82.1921C174.08 83.6075 173.098 84.8137 171.823 85.6395C170.526 86.4936 169.049 86.9207 167.391 86.9207C165.141 86.9207 163.36 86.149 162.046 84.6057C160.733 83.0624 160.076 80.969 160.076 78.3254C160.076 75.6983 160.758 73.6131 162.12 72.0698C163.483 70.5265 165.313 69.7548 167.612 69.7548C169.237 69.7553 170.67 70.178 171.91 71.0229Z" fill="url(#paint0_linear_2418_171070)"/>
<defs>
<linearGradient id="paint0_linear_2418_171070" x1="1.70919" y1="93.9083" x2="177.389" y2="56.1415" gradientUnits="userSpaceOnUse">
<stop stop-color="#FF7A00"/>
<stop offset="0.5" stop-color="#FF0169"/>
<stop offset="1" stop-color="#D300C5"/>
</linearGradient>
</defs>
</svg>
